<svg width="414" height="47" viewBox="0 0 414 47" fill="none" xmlns="http://www.w3.org/2000/svg">
<g clip-path="url(#clip0_1_240)">
<path d="M170.863 38.0444C170.954 35.6894 169.128 33.707 166.783 33.6165C164.439 33.5261 162.465 35.3618 162.375 37.7168C162.284 40.0718 164.11 42.0543 166.454 42.1448C168.798 42.2352 170.772 40.3994 170.863 38.0444Z" fill="#1D1D1B"/>
<path d="M193.384 11.3389C193.474 8.98387 191.648 7.00144 189.304 6.91098C186.96 6.82052 184.986 8.65628 184.895 11.0113C184.804 13.3663 186.631 15.3487 188.975 15.4392C191.319 15.5296 193.293 13.6939 193.384 11.3389Z" fill="#1D1D1B"/>
<path d="M35.9902 28.2616C35.9902 20.8308 36.0986 12.789 36.276 8.12753H36.0099C34.0882 16.1398 28.9635 31.6124 24.6371 44.8577H17.7976C14.5257 33.544 9.22359 16.0412 7.3511 8.01912H7.10473C7.44966 12.9467 7.61719 21.8853 7.61719 29.1289V44.8479H0.334229V2.59879H12.1407C15.9547 14.3461 20.3895 29.2471 21.7199 35.2391H21.7988C22.8237 30.1932 28.2441 14.0998 32.265 2.59879H43.6674V44.8479H36.0001V28.2616H35.9902Z" fill="#1D1D1B"/>
<path d="M62.2148 2.59879V44.8479H54.2913V2.59879H62.2148Z" fill="#1D1D1B"/>
<path d="M72.7993 44.8479V2.59879H82.7826C88.3311 12.2174 99.2604 30.6663 101.35 35.2686H101.458C101.005 30.5086 101.025 23.403 101.025 16.4847V2.59879H108.288V44.8479H98.8367C93.9386 36.2739 82.1223 15.6076 79.8359 10.7786H79.7275C80.033 14.8586 80.102 23.0187 80.102 30.6071V44.8577H72.7993V44.8479Z" fill="#1D1D1B"/>
<path d="M118.872 2.59879H135.064C147.225 2.59879 155.267 10.6997 155.267 23.2355C155.267 35.7713 147.452 44.8577 134.749 44.8577H118.882V2.59879H118.872ZM126.796 38.373H134.335C143.067 38.373 147.048 31.9672 147.048 23.2848C147.048 15.8934 143.362 9.08348 134.384 9.08348H126.796V38.373Z" fill="#1D1D1B"/>
<path d="M232.266 26.1033H211.777V38.2843H234.335L233.379 44.8479H204.07V2.59879H233.192V9.16232H211.777V19.5398H232.266V26.1033Z" fill="#1D1D1B"/>
<path d="M251.473 9.16232H238.356V2.59879H272.504V9.16232H259.417V44.8479H251.473V9.16232Z" fill="#1D1D1B"/>
<path d="M179.501 17.0859V1.2092H177.274V16.0412C177.431 16.1201 177.579 16.189 177.737 16.2679C178.368 16.5734 178.949 16.8395 179.491 17.0859H179.501Z" fill="black"/>
<path d="M178.693 31.0013C178.111 30.7451 177.875 30.6367 177.628 30.5283C177.52 30.479 177.412 30.4297 177.274 30.3706V46.2374H179.501V31.3561C179.432 31.3266 179.373 31.297 179.304 31.2674L178.693 30.9915V31.0013Z" fill="black"/>
<path d="M173.805 16.4157C172.74 15.7948 171.735 15.2035 170.779 14.4644C168.986 13.065 167.606 11.3994 166.699 9.5171C166.088 8.25563 165.684 6.90548 165.517 5.5159C163.871 7.60519 161.91 11.0446 162.59 14.9966C163.092 17.9235 165.26 20.4563 165.28 20.476C165.664 20.9392 165.96 21.2447 166.197 21.4911C169.045 24.3885 176.101 27.6802 177.284 28.2123V18.2192C177.156 18.1601 177.027 18.1009 176.889 18.032C175.687 17.4505 174.731 16.9479 173.805 16.4059V16.4157Z" fill="black"/>
<path d="M179.511 29.1979L180.122 29.4738C183.414 30.9521 185.217 31.7701 186.824 32.8935C189.021 34.4309 190.637 36.0669 191.603 37.7521C191.662 37.8507 191.712 37.9492 191.751 38.0182C192.402 39.2501 192.835 40.5904 193.042 41.9997C194.639 39.8907 196.521 36.4315 195.752 32.4698C195.181 29.5231 193.328 27.4633 192.53 26.5862C189.494 23.2158 185.138 21.4911 181.955 20.2395L181.847 20.2001C181.433 20.0326 180.605 19.7073 179.511 19.2441V29.2077V29.1979Z" fill="black"/>
<path d="M177.461 28.301C177.964 28.5277 178.19 28.6263 178.417 28.7248C178.663 28.8332 178.91 28.9416 179.511 29.2077V19.2441C178.851 18.9583 178.102 18.6233 177.284 18.2389V28.2321C177.382 28.2813 177.461 28.3109 177.461 28.3109V28.301Z" fill="black"/>
</g>
<g clip-path="url(#clip1_1_240)">
<path d="M298.334 3.9792C298.334 1.89709 300.022 0.209198 302.104 0.209198H302.274C304.356 0.209198 306.044 1.89709 306.044 3.9792C306.044 6.06131 304.356 7.7492 302.274 7.7492H302.104C300.022 7.7492 298.334 6.06131 298.334 3.9792ZM298.334 13.6892H306.044V45.5592H298.334V13.6892Z" fill="#1D1D1B"/>
<path d="M319.364 36.1292C320.114 38.9892 322.354 40.6192 325.994 40.6192C329.634 40.6192 331.134 39.1592 331.134 36.9092C331.134 34.6592 329.734 33.5492 324.654 32.3092C314.704 29.8692 312.934 26.7992 312.934 22.3592C312.934 17.9192 316.244 12.9392 325.384 12.9392C334.524 12.9392 337.864 18.0392 338.184 22.3992H330.824C330.484 20.9292 329.434 18.4792 325.034 18.4792C321.594 18.4792 320.524 20.0592 320.524 21.7092C320.524 23.5592 321.624 24.4692 327.024 25.7392C337.334 28.1492 338.974 31.6592 338.974 36.3492C338.974 41.7292 334.824 46.2892 325.704 46.2892C316.584 46.2892 312.494 41.7892 311.754 36.1192H319.354L319.364 36.1292Z" fill="#1D1D1B"/>
<path d="M359.084 28.3192H388.644V34.2692H359.084V28.3192ZM371.554 3.93921H376.864L366.774 45.5592H361.274L371.554 3.93921ZM362.174 14.1992H391.504L391.464 20.1492H362.184V14.1992H362.174ZM384.094 3.93921H389.414L379.334 45.5592H373.874L384.094 3.93921Z" fill="#1D1D1B"/>
<path d="M405.264 45.5492V12.1792C403.414 13.2492 398.944 14.1992 396.864 14.3292V8.5892C400.794 7.7792 405.204 5.3692 407.624 2.6792H413.304V45.5492H405.264Z" fill="#1D1D1B"/>
</g>
<defs>
<clipPath id="clip0_1_240">
<rect width="272.17" height="45.0282" fill="white" transform="translate(0.334229 1.2092)"/>
</clipPath>
<clipPath id="clip1_1_240">
<rect width="114.97" height="46.09" fill="white" transform="translate(298.334 0.209198)"/>
</clipPath>
</defs>
</svg>
