<svg width="435" height="116" viewBox="0 0 435 116" fill="none" xmlns="http://www.w3.org/2000/svg">
<path d="M355.055 47.3V69H353.412V60.103H347.46L341.322 69H339.462L345.631 60.041C342.5 59.638 340.082 56.941 340.082 53.717C340.082 50.183 342.934 47.3 346.468 47.3H355.055ZM346.468 58.553H353.412V48.85H346.468C343.864 48.85 341.725 51.02 341.725 53.717C341.725 56.383 343.864 58.553 346.468 58.553Z" fill="white"/>
<path d="M328.078 69.341C321.475 69.341 316.794 64.35 316.794 58.15C316.794 51.95 321.475 46.959 328.078 46.959C332.077 46.959 335.58 49.005 337.378 52.167L335.921 53.004C334.495 50.338 331.488 48.54 328.078 48.54C322.374 48.54 318.437 52.818 318.437 58.15C318.437 63.482 322.374 67.76 328.078 67.76C331.519 67.76 334.557 65.931 335.983 63.203L337.44 64.04C335.673 67.233 332.139 69.341 328.078 69.341Z" fill="white"/>
<path d="M311.012 69V50.338L298.178 69H296.752V47.3H298.395V65.962L311.198 47.3H312.655V69H311.012Z" fill="white"/>
<path d="M293.341 47.3V48.85H286.521V69H284.847V48.85H278.027V47.3H293.341Z" fill="white"/>
<path d="M276.66 69L274.552 63.482H263.671L261.563 69H259.827L268.259 47.3H269.995L278.396 69H276.66ZM264.291 61.932H273.963L269.127 49.315L264.291 61.932Z" fill="white"/>
<path d="M254.307 57.747C256.477 58.584 258.027 60.599 258.027 63.079C258.027 66.365 255.392 69 252.106 69H242.744V47.3H251.393C254.555 47.3 257.097 49.873 257.097 53.004C257.097 55.112 255.981 56.848 254.307 57.747ZM251.393 48.85H244.387V57.158H251.393C253.625 57.158 255.454 55.298 255.454 53.004C255.454 50.71 253.625 48.85 251.393 48.85ZM252.106 67.45C254.462 67.45 256.384 65.497 256.384 63.079C256.384 60.661 254.462 58.708 252.106 58.708H244.387V67.45H252.106Z" fill="white"/>
<path d="M237.926 47.3H239.631L232.408 64.257C230.889 67.822 228.75 69.217 225.805 69V67.481C228.13 67.729 229.649 66.675 230.765 64.071L231.137 63.203L223.511 47.3H225.216L231.912 61.343L237.926 47.3Z" fill="white"/>
<path d="M215.308 47.3C219.214 47.3 222.066 50.183 222.066 54.027C222.066 57.84 219.214 60.723 215.308 60.723H209.573V69H207.93V47.3H215.308ZM215.308 59.173C218.284 59.173 220.423 57.003 220.423 54.027C220.423 51.02 218.284 48.85 215.308 48.85H209.573V59.173H215.308Z" fill="white"/>
<path d="M204.518 47.3V48.85H197.698V69H196.024V48.85H189.204V47.3H204.518Z" fill="white"/>
<path d="M178.255 69.341C171.652 69.341 166.971 64.35 166.971 58.15C166.971 51.95 171.652 46.959 178.255 46.959C182.254 46.959 185.757 49.005 187.555 52.167L186.098 53.004C184.672 50.338 181.665 48.54 178.255 48.54C172.551 48.54 168.614 52.818 168.614 58.15C168.614 63.482 172.551 67.76 178.255 67.76C181.696 67.76 184.734 65.931 186.16 63.203L187.617 64.04C185.85 67.233 182.316 69.341 178.255 69.341Z" fill="white"/>
<path d="M162.846 63.203L164.334 64.04C162.567 67.233 159.002 69.341 154.972 69.341C148.369 69.341 143.781 64.35 143.781 58.15C143.781 51.95 148.369 46.959 154.972 46.959C158.94 46.959 162.474 49.005 164.272 52.167L162.815 53.004C161.358 50.338 158.351 48.54 154.972 48.54C149.547 48.54 145.796 52.415 145.455 57.375H157.7V58.925H145.455C145.796 63.885 149.547 67.76 154.972 67.76C158.413 67.76 161.42 65.931 162.846 63.203Z" fill="white"/>
<path d="M130.287 67.45H141.137V69H128.644V47.3H140.982V48.85H130.287V57.282H140.207V58.832H130.287V67.45Z" fill="white"/>
<path d="M117.827 47.3C121.733 47.3 124.585 50.183 124.585 54.027C124.585 57.84 121.733 60.723 117.827 60.723H112.092V69H110.449V47.3H117.827ZM117.827 59.173C120.803 59.173 122.942 57.003 122.942 54.027C122.942 51.02 120.803 48.85 117.827 48.85H112.092V59.173H117.827Z" fill="white"/>
<path d="M105.554 69L103.446 63.482H92.5652L90.4572 69H88.7212L97.1532 47.3H98.8892L107.29 69H105.554ZM93.1852 61.932H102.857L98.0212 49.315L93.1852 61.932Z" fill="white"/>
<path d="M82.9972 57.778C85.5392 58.646 87.0272 60.661 87.0272 63.234C87.0272 66.706 84.2372 69.341 79.7112 69.341C75.4332 69.341 73.1392 67.202 72.2402 64.567L73.6662 63.792C74.2552 65.931 75.9912 67.791 79.7112 67.791C83.3072 67.791 85.3532 65.869 85.3532 63.234C85.3532 60.692 83.4932 58.708 80.2692 58.708H77.8202V57.158H79.5562C82.6872 57.158 84.5782 55.298 84.5782 52.849C84.5782 50.369 82.6252 48.509 79.5872 48.509C76.4252 48.509 74.7822 50.09 74.0072 52.074L72.6432 51.299C73.6662 48.85 75.8052 46.959 79.5872 46.959C83.5552 46.959 86.2212 49.532 86.2212 52.849C86.2212 55.05 85.0122 56.848 82.9972 57.778Z" fill="white"/>
<g filter="url(#filter0_d_228_34)">
<rect x="20.7188" y="21.463" width="393.366" height="73.0741" stroke="#D71359" shape-rendering="crispEdges"/>
</g>
<g filter="url(#filter1_d_228_34)">
<rect x="208.549" y="18" width="17.7062" height="5.92593" rx="2.96296" fill="#D71359"/>
</g>
<g filter="url(#filter2_d_228_34)">
<path d="M410.561 20.963C410.561 19.3266 411.887 18 413.524 18H414.036C415.673 18 416.999 19.3266 416.999 20.963C416.999 22.5994 415.673 23.9259 414.036 23.9259H413.524C411.887 23.9259 410.561 22.5994 410.561 20.963Z" fill="#D71359"/>
</g>
<g filter="url(#filter3_d_228_34)">
<rect x="17" y="18" width="6.43863" height="5.92593" rx="2.96296" fill="#D71359"/>
</g>
<g filter="url(#filter4_d_228_34)">
<path d="M410.561 95.037C410.561 93.4006 411.887 92.0741 413.524 92.0741H414.036C415.673 92.0741 416.999 93.4006 416.999 95.037C416.999 96.6734 415.673 98 414.036 98H413.524C411.887 98 410.561 96.6734 410.561 95.037Z" fill="#D71359"/>
</g>
<g filter="url(#filter5_d_228_34)">
<rect x="17" y="92.0741" width="6.43863" height="5.92593" rx="2.96296" fill="#D71359"/>
</g>
<g filter="url(#filter6_d_228_34)">
<rect x="208.549" y="92.0741" width="17.7062" height="5.92593" rx="2.96296" fill="#D71359"/>
</g>
<defs>
<filter id="filter0_d_228_34" x="0.21875" y="0.962952" width="434.366" height="114.074" filterUnits="userSpaceOnUse" color-interpolation-filters="sRGB">
<feFlood flood-opacity="0" result="BackgroundImageFix"/>
<feColorMatrix in="SourceAlpha" type="matrix" values="0 0 0 0 0 0 0 0 0 0 0 0 0 0 0 0 0 0 127 0" result="hardAlpha"/>
<feMorphology radius="1" operator="dilate" in="SourceAlpha" result="effect1_dropShadow_228_34"/>
<feOffset/>
<feGaussianBlur stdDeviation="9.5"/>
<feComposite in2="hardAlpha" operator="out"/>
<feColorMatrix type="matrix" values="0 0 0 0 0 0 0 0 0 0.7 0 0 0 0 1 0 0 0 1 0"/>
<feBlend mode="normal" in2="BackgroundImageFix" result="effect1_dropShadow_228_34"/>
<feBlend mode="normal" in="SourceGraphic" in2="effect1_dropShadow_228_34" result="shape"/>
</filter>
<filter id="filter1_d_228_34" x="201.549" y="11" width="31.7063" height="19.9259" filterUnits="userSpaceOnUse" color-interpolation-filters="sRGB">
<feFlood flood-opacity="0" result="BackgroundImageFix"/>
<feColorMatrix in="SourceAlpha" type="matrix" values="0 0 0 0 0 0 0 0 0 0 0 0 0 0 0 0 0 0 127 0" result="hardAlpha"/>
<feOffset/>
<feGaussianBlur stdDeviation="3.5"/>
<feComposite in2="hardAlpha" operator="out"/>
<feColorMatrix type="matrix" values="0 0 0 0 0 0 0 0 0 0.76 0 0 0 0 1 0 0 0 0.6 0"/>
<feBlend mode="normal" in2="BackgroundImageFix" result="effect1_dropShadow_228_34"/>
<feBlend mode="normal" in="SourceGraphic" in2="effect1_dropShadow_228_34" result="shape"/>
</filter>
<filter id="filter2_d_228_34" x="400.561" y="8" width="26.4387" height="25.9259" filterUnits="userSpaceOnUse" color-interpolation-filters="sRGB">
<feFlood flood-opacity="0" result="BackgroundImageFix"/>
<feColorMatrix in="SourceAlpha" type="matrix" values="0 0 0 0 0 0 0 0 0 0 0 0 0 0 0 0 0 0 127 0" result="hardAlpha"/>
<feOffset/>
<feGaussianBlur stdDeviation="5"/>
<feComposite in2="hardAlpha" operator="out"/>
<feColorMatrix type="matrix" values="0 0 0 0 0 0 0 0 0 0.76 0 0 0 0 1 0 0 0 0.7 0"/>
<feBlend mode="normal" in2="BackgroundImageFix" result="effect1_dropShadow_228_34"/>
<feBlend mode="normal" in="SourceGraphic" in2="effect1_dropShadow_228_34" result="shape"/>
</filter>
<filter id="filter3_d_228_34" x="7" y="8" width="26.4385" height="25.9259" filterUnits="userSpaceOnUse" color-interpolation-filters="sRGB">
<feFlood flood-opacity="0" result="BackgroundImageFix"/>
<feColorMatrix in="SourceAlpha" type="matrix" values="0 0 0 0 0 0 0 0 0 0 0 0 0 0 0 0 0 0 127 0" result="hardAlpha"/>
<feOffset/>
<feGaussianBlur stdDeviation="5"/>
<feComposite in2="hardAlpha" operator="out"/>
<feColorMatrix type="matrix" values="0 0 0 0 0 0 0 0 0 0.76 0 0 0 0 1 0 0 0 0.7 0"/>
<feBlend mode="normal" in2="BackgroundImageFix" result="effect1_dropShadow_228_34"/>
<feBlend mode="normal" in="SourceGraphic" in2="effect1_dropShadow_228_34" result="shape"/>
</filter>
<filter id="filter4_d_228_34" x="400.561" y="82.0741" width="26.4387" height="25.9259" filterUnits="userSpaceOnUse" color-interpolation-filters="sRGB">
<feFlood flood-opacity="0" result="BackgroundImageFix"/>
<feColorMatrix in="SourceAlpha" type="matrix" values="0 0 0 0 0 0 0 0 0 0 0 0 0 0 0 0 0 0 127 0" result="hardAlpha"/>
<feOffset/>
<feGaussianBlur stdDeviation="5"/>
<feComposite in2="hardAlpha" operator="out"/>
<feColorMatrix type="matrix" values="0 0 0 0 0 0 0 0 0 0.76 0 0 0 0 1 0 0 0 0.7 0"/>
<feBlend mode="normal" in2="BackgroundImageFix" result="effect1_dropShadow_228_34"/>
<feBlend mode="normal" in="SourceGraphic" in2="effect1_dropShadow_228_34" result="shape"/>
</filter>
<filter id="filter5_d_228_34" x="7" y="82.0741" width="26.4385" height="25.9259" filterUnits="userSpaceOnUse" color-interpolation-filters="sRGB">
<feFlood flood-opacity="0" result="BackgroundImageFix"/>
<feColorMatrix in="SourceAlpha" type="matrix" values="0 0 0 0 0 0 0 0 0 0 0 0 0 0 0 0 0 0 127 0" result="hardAlpha"/>
<feOffset/>
<feGaussianBlur stdDeviation="5"/>
<feComposite in2="hardAlpha" operator="out"/>
<feColorMatrix type="matrix" values="0 0 0 0 0 0 0 0 0 0.76 0 0 0 0 1 0 0 0 0.7 0"/>
<feBlend mode="normal" in2="BackgroundImageFix" result="effect1_dropShadow_228_34"/>
<feBlend mode="normal" in="SourceGraphic" in2="effect1_dropShadow_228_34" result="shape"/>
</filter>
<filter id="filter6_d_228_34" x="201.549" y="85.0741" width="31.7063" height="19.9259" filterUnits="userSpaceOnUse" color-interpolation-filters="sRGB">
<feFlood flood-opacity="0" result="BackgroundImageFix"/>
<feColorMatrix in="SourceAlpha" type="matrix" values="0 0 0 0 0 0 0 0 0 0 0 0 0 0 0 0 0 0 127 0" result="hardAlpha"/>
<feOffset/>
<feGaussianBlur stdDeviation="3.5"/>
<feComposite in2="hardAlpha" operator="out"/>
<feColorMatrix type="matrix" values="0 0 0 0 0 0 0 0 0 0.76 0 0 0 0 1 0 0 0 0.6 0"/>
<feBlend mode="normal" in2="BackgroundImageFix" result="effect1_dropShadow_228_34"/>
<feBlend mode="normal" in="SourceGraphic" in2="effect1_dropShadow_228_34" result="shape"/>
</filter>
</defs>
</svg>
