<svg width="413" height="47" viewBox="0 0 413 47" fill="none" xmlns="http://www.w3.org/2000/svg">
<g clip-path="url(#clip0_1_133)">
<path d="M170.529 37.8352C170.62 35.4802 168.793 33.4978 166.449 33.4073C164.105 33.3169 162.131 35.1526 162.04 37.5076C161.949 39.8627 163.776 41.8451 166.12 41.9356C168.464 42.026 170.438 40.1902 170.529 37.8352Z" fill="white"/>
<path d="M193.049 11.1297C193.14 8.77467 191.314 6.79224 188.97 6.70178C186.625 6.61132 184.651 8.44708 184.561 10.8021C184.47 13.1571 186.296 15.1395 188.64 15.23C190.985 15.3205 192.959 13.4847 193.049 11.1297Z" fill="white"/>
<path d="M35.656 28.0524C35.656 20.6216 35.7644 12.5798 35.9418 7.91833H35.6757C33.7539 15.9306 28.6292 31.4032 24.3028 44.6485H17.4633C14.1914 33.3348 8.88936 15.832 7.01687 7.80992H6.7705C7.11543 12.7375 7.28296 21.6761 7.28296 28.9197V44.6386H0V2.38959H11.8065C15.6204 14.1369 20.0553 29.0379 21.3857 35.0299H21.4645C22.4895 29.984 27.9098 13.8906 31.9307 2.38959H43.3331V44.6386H35.6658V28.0524H35.656Z" fill="white"/>
<path d="M61.8806 2.38959V44.6387H53.957V2.38959H61.8806Z" fill="white"/>
<path d="M72.4651 44.6386V2.38959H82.4484C87.9968 12.0082 98.9262 30.4571 101.015 35.0594H101.124C100.671 30.2994 100.69 23.1938 100.69 16.2755V2.38959H107.954V44.6386H98.5024C93.6044 36.0647 81.7881 15.3984 79.5017 10.5694H79.3933C79.6988 14.6494 79.7678 22.8095 79.7678 30.3979V44.6485H72.4651V44.6386Z" fill="white"/>
<path d="M118.538 2.38959H134.73C146.891 2.38959 154.933 10.4905 154.933 23.0263C154.933 35.562 147.118 44.6485 134.415 44.6485H118.548V2.38959H118.538ZM126.461 38.1638H134.001C142.732 38.1638 146.714 31.758 146.714 23.0756C146.714 15.6842 143.028 8.87428 134.05 8.87428H126.461V38.1638Z" fill="white"/>
<path d="M231.931 25.8941H211.443V38.0751H234.001L233.045 44.6387H203.736V2.38959H232.858V8.95312H211.443V19.3306H231.931V25.8941Z" fill="white"/>
<path d="M251.139 8.95312H238.022V2.38959H272.17V8.95312H259.082V44.6387H251.139V8.95312Z" fill="white"/>
<path d="M179.167 16.8767V1H176.939V15.832C177.097 15.9109 177.245 15.9798 177.403 16.0587C178.033 16.3642 178.615 16.6303 179.157 16.8767H179.167Z" fill="white"/>
<path d="M178.359 30.7921C177.777 30.5359 177.541 30.4275 177.294 30.3191C177.186 30.2698 177.077 30.2205 176.939 30.1614V46.0282H179.167V31.1469C179.098 31.1174 179.039 31.0878 178.97 31.0582L178.359 30.7823V30.7921Z" fill="white"/>
<path d="M173.471 16.2065C172.406 15.5856 171.401 14.9943 170.445 14.2552C168.651 12.8558 167.272 11.1902 166.365 9.3079C165.754 8.04644 165.35 6.69628 165.182 5.3067C163.537 7.396 161.575 10.8354 162.255 14.7874C162.758 17.7143 164.926 20.2471 164.946 20.2668C165.33 20.73 165.626 21.0355 165.862 21.2819C168.71 24.1793 175.767 27.471 176.949 28.0031V18.01C176.821 17.9509 176.693 17.8917 176.555 17.8228C175.353 17.2413 174.397 16.7387 173.471 16.1967V16.2065Z" fill="white"/>
<path d="M179.177 28.9887L179.788 29.2646C183.079 30.7429 184.883 31.5609 186.489 32.6843C188.687 34.2217 190.303 35.8577 191.269 37.5429C191.328 37.6415 191.377 37.74 191.417 37.809C192.067 39.0409 192.501 40.3812 192.708 41.7905C194.304 39.6815 196.187 36.2223 195.418 32.2606C194.846 29.3139 192.994 27.2541 192.195 26.377C189.16 23.0066 184.804 21.2819 181.621 20.0303L181.512 19.9909C181.099 19.8234 180.271 19.4981 179.177 19.0349V28.9985V28.9887Z" fill="white"/>
<path d="M177.127 28.0918C177.629 28.3185 177.856 28.4171 178.083 28.5156C178.329 28.624 178.576 28.7324 179.177 28.9985V19.0349C178.516 18.7491 177.767 18.4141 176.949 18.0297V28.0229C177.048 28.0721 177.127 28.1017 177.127 28.1017V28.0918Z" fill="white"/>
</g>
<g clip-path="url(#clip1_1_133)">
<path d="M298 3.77C298 1.68789 299.688 0 301.77 0H301.94C304.022 0 305.71 1.68789 305.71 3.77C305.71 5.85211 304.022 7.54 301.94 7.54H301.77C299.688 7.54 298 5.85211 298 3.77ZM298 13.48H305.71V45.35H298V13.48Z" fill="white"/>
<path d="M319.03 35.92C319.78 38.78 322.02 40.41 325.66 40.41C329.3 40.41 330.8 38.95 330.8 36.7C330.8 34.45 329.4 33.34 324.32 32.1C314.37 29.66 312.6 26.59 312.6 22.15C312.6 17.71 315.91 12.73 325.05 12.73C334.19 12.73 337.53 17.83 337.85 22.19H330.49C330.15 20.72 329.1 18.27 324.7 18.27C321.26 18.27 320.19 19.85 320.19 21.5C320.19 23.35 321.29 24.26 326.69 25.53C337 27.94 338.64 31.45 338.64 36.14C338.64 41.52 334.49 46.08 325.37 46.08C316.25 46.08 312.16 41.58 311.42 35.91H319.02L319.03 35.92Z" fill="white"/>
<path d="M358.75 28.11H388.31V34.06H358.75V28.11ZM371.22 3.73001H376.53L366.44 45.35H360.94L371.22 3.73001ZM361.84 13.99H391.17L391.13 19.94H361.85V13.99H361.84ZM383.76 3.73001H389.08L379 45.35H373.54L383.76 3.73001Z" fill="white"/>
<path d="M404.93 45.34V11.97C403.08 13.04 398.61 13.99 396.53 14.12V8.38C400.46 7.57 404.87 5.16 407.29 2.47H412.97V45.34H404.93Z" fill="white"/>
</g>
<defs>
<clipPath id="clip0_1_133">
<rect width="272.17" height="45.0282" fill="white" transform="translate(0 1)"/>
</clipPath>
<clipPath id="clip1_1_133">
<rect width="114.97" height="46.09" fill="white" transform="translate(298)"/>
</clipPath>
</defs>
</svg>
