<svg width="889" height="47" viewBox="0 0 889 47" fill="none" xmlns="http://www.w3.org/2000/svg">
<g clip-path="url(#clip0_210_110)">
<path d="M170.529 37.8352C170.62 35.4802 168.793 33.4978 166.449 33.4073C164.105 33.3169 162.131 35.1526 162.04 37.5076C161.949 39.8627 163.776 41.8451 166.12 41.9356C168.464 42.026 170.438 40.1902 170.529 37.8352Z" fill="white"/>
<path d="M193.049 11.1297C193.14 8.77467 191.314 6.79224 188.97 6.70178C186.625 6.61132 184.651 8.44708 184.561 10.8021C184.47 13.1571 186.296 15.1395 188.64 15.23C190.985 15.3205 192.959 13.4847 193.049 11.1297Z" fill="white"/>
<path d="M35.656 28.0524C35.656 20.6216 35.7644 12.5798 35.9418 7.91833H35.6757C33.7539 15.9306 28.6292 31.4032 24.3028 44.6485H17.4633C14.1914 33.3348 8.88936 15.832 7.01687 7.80992H6.7705C7.11543 12.7375 7.28296 21.6761 7.28296 28.9197V44.6386H0V2.38959H11.8065C15.6204 14.1369 20.0553 29.0379 21.3857 35.0299H21.4645C22.4895 29.984 27.9098 13.8906 31.9307 2.38959H43.3331V44.6386H35.6658V28.0524H35.656Z" fill="white"/>
<path d="M61.8806 2.38959V44.6387H53.957V2.38959H61.8806Z" fill="white"/>
<path d="M72.4651 44.6386V2.38959H82.4484C87.9968 12.0082 98.9262 30.4571 101.015 35.0594H101.124C100.671 30.2994 100.69 23.1938 100.69 16.2755V2.38959H107.954V44.6386H98.5024C93.6044 36.0647 81.7881 15.3984 79.5017 10.5694H79.3933C79.6988 14.6494 79.7678 22.8095 79.7678 30.3979V44.6485H72.4651V44.6386Z" fill="white"/>
<path d="M118.538 2.38959H134.73C146.891 2.38959 154.933 10.4905 154.933 23.0263C154.933 35.562 147.118 44.6485 134.415 44.6485H118.548V2.38959H118.538ZM126.461 38.1638H134.001C142.732 38.1638 146.714 31.758 146.714 23.0756C146.714 15.6842 143.028 8.87428 134.05 8.87428H126.461V38.1638Z" fill="white"/>
<path d="M231.931 25.8941H211.443V38.0751H234.001L233.045 44.6387H203.736V2.38959H232.858V8.95312H211.443V19.3306H231.931V25.8941Z" fill="white"/>
<path d="M251.139 8.95312H238.022V2.38959H272.17V8.95312H259.082V44.6387H251.139V8.95312Z" fill="white"/>
<path d="M179.167 16.8767V1H176.939V15.832C177.097 15.9109 177.245 15.9798 177.403 16.0587C178.033 16.3642 178.615 16.6303 179.157 16.8767H179.167Z" fill="white"/>
<path d="M178.359 30.7921C177.777 30.5359 177.541 30.4275 177.294 30.3191C177.186 30.2698 177.077 30.2205 176.939 30.1614V46.0282H179.167V31.1469C179.098 31.1174 179.039 31.0878 178.97 31.0582L178.359 30.7823V30.7921Z" fill="white"/>
<path d="M173.471 16.2065C172.406 15.5856 171.401 14.9943 170.445 14.2552C168.651 12.8558 167.272 11.1902 166.365 9.3079C165.754 8.04644 165.35 6.69628 165.182 5.3067C163.537 7.396 161.575 10.8354 162.255 14.7874C162.758 17.7143 164.926 20.2471 164.946 20.2668C165.33 20.73 165.626 21.0355 165.862 21.2819C168.71 24.1793 175.767 27.471 176.949 28.0031V18.01C176.821 17.9509 176.693 17.8917 176.555 17.8228C175.353 17.2413 174.397 16.7387 173.471 16.1967V16.2065Z" fill="white"/>
<path d="M179.177 28.9887L179.788 29.2646C183.079 30.7429 184.883 31.5609 186.489 32.6843C188.687 34.2217 190.303 35.8577 191.269 37.5429C191.328 37.6415 191.377 37.74 191.417 37.809C192.067 39.0409 192.501 40.3812 192.708 41.7905C194.304 39.6815 196.187 36.2223 195.418 32.2606C194.846 29.3139 192.994 27.2541 192.195 26.377C189.16 23.0066 184.804 21.2819 181.621 20.0303L181.512 19.9909C181.099 19.8234 180.271 19.4981 179.177 19.0349V28.9985V28.9887Z" fill="white"/>
<path d="M177.127 28.0918C177.629 28.3185 177.856 28.4171 178.083 28.5156C178.329 28.624 178.576 28.7324 179.177 28.9985V19.0349C178.516 18.7491 177.767 18.4141 176.949 18.0297V28.0229C177.048 28.0721 177.127 28.1017 177.127 28.1017V28.0918Z" fill="white"/>
</g>
<g clip-path="url(#clip1_210_110)">
<path d="M298 3.77C298 1.68789 299.688 0 301.77 0H301.94C304.022 0 305.71 1.68789 305.71 3.77C305.71 5.85211 304.022 7.54 301.94 7.54H301.77C299.688 7.54 298 5.85211 298 3.77ZM298 13.48H305.71V45.35H298V13.48Z" fill="white"/>
<path d="M319.03 35.92C319.78 38.78 322.02 40.41 325.66 40.41C329.3 40.41 330.8 38.95 330.8 36.7C330.8 34.45 329.4 33.34 324.32 32.1C314.37 29.66 312.6 26.59 312.6 22.15C312.6 17.71 315.91 12.73 325.05 12.73C334.19 12.73 337.53 17.83 337.85 22.19H330.49C330.15 20.72 329.1 18.27 324.7 18.27C321.26 18.27 320.19 19.85 320.19 21.5C320.19 23.35 321.29 24.26 326.69 25.53C337 27.94 338.64 31.45 338.64 36.14C338.64 41.52 334.49 46.08 325.37 46.08C316.25 46.08 312.16 41.58 311.42 35.91H319.02L319.03 35.92Z" fill="white"/>
<path d="M358.75 28.11H388.31V34.06H358.75V28.11ZM371.22 3.73001H376.53L366.44 45.35H360.94L371.22 3.73001ZM361.84 13.99H391.17L391.13 19.94H361.85V13.99H361.84ZM383.76 3.73001H389.08L379 45.35H373.54L383.76 3.73001Z" fill="white"/>
<path d="M404.93 45.34V11.97C403.08 13.04 398.61 13.99 396.53 14.12V8.38C400.46 7.57 404.87 5.16 407.29 2.47H412.97V45.34H404.93Z" fill="white"/>
</g>
<g clip-path="url(#clip2_210_110)">
<path d="M646.529 37.8352C646.62 35.4802 644.793 33.4978 642.449 33.4073C640.105 33.3169 638.131 35.1526 638.04 37.5076C637.949 39.8627 639.776 41.8451 642.12 41.9356C644.464 42.026 646.438 40.1902 646.529 37.8352Z" fill="white"/>
<path d="M669.049 11.1297C669.14 8.77467 667.314 6.79224 664.97 6.70178C662.625 6.61132 660.651 8.44708 660.561 10.8021C660.47 13.1571 662.296 15.1395 664.64 15.23C666.985 15.3205 668.959 13.4847 669.049 11.1297Z" fill="white"/>
<path d="M511.656 28.0524C511.656 20.6216 511.764 12.5798 511.942 7.91833H511.676C509.754 15.9306 504.629 31.4032 500.303 44.6485H493.463C490.191 33.3348 484.889 15.832 483.017 7.80992H482.77C483.115 12.7375 483.283 21.6761 483.283 28.9197V44.6386H476V2.38959H487.806C491.62 14.1369 496.055 29.0379 497.386 35.0299H497.465C498.489 29.984 503.91 13.8906 507.931 2.38959H519.333V44.6386H511.666V28.0524H511.656Z" fill="white"/>
<path d="M537.881 2.38959V44.6387H529.957V2.38959H537.881Z" fill="white"/>
<path d="M548.465 44.6386V2.38959H558.448C563.997 12.0082 574.926 30.4571 577.015 35.0594H577.124C576.671 30.2994 576.69 23.1938 576.69 16.2755V2.38959H583.954V44.6386H574.502C569.604 36.0647 557.788 15.3984 555.502 10.5694H555.393C555.699 14.6494 555.768 22.8095 555.768 30.3979V44.6485H548.465V44.6386Z" fill="white"/>
<path d="M594.538 2.38959H610.73C622.891 2.38959 630.933 10.4905 630.933 23.0263C630.933 35.562 623.118 44.6485 610.415 44.6485H594.548V2.38959H594.538ZM602.461 38.1638H610.001C618.732 38.1638 622.714 31.758 622.714 23.0756C622.714 15.6842 619.028 8.87428 610.05 8.87428H602.461V38.1638Z" fill="white"/>
<path d="M707.931 25.8941H687.443V38.0751H710.001L709.045 44.6387H679.736V2.38959H708.858V8.95312H687.443V19.3306H707.931V25.8941Z" fill="white"/>
<path d="M727.139 8.95312H714.022V2.38959H748.17V8.95312H735.082V44.6387H727.139V8.95312Z" fill="white"/>
<path d="M655.167 16.8767V1H652.939V15.832C653.097 15.9109 653.245 15.9798 653.403 16.0587C654.033 16.3642 654.615 16.6303 655.157 16.8767H655.167Z" fill="white"/>
<path d="M654.359 30.7921C653.777 30.5359 653.541 30.4275 653.294 30.3191C653.186 30.2698 653.077 30.2205 652.939 30.1614V46.0282H655.167V31.1469C655.098 31.1174 655.039 31.0878 654.97 31.0582L654.359 30.7823V30.7921Z" fill="white"/>
<path d="M649.471 16.2065C648.406 15.5856 647.401 14.9943 646.445 14.2552C644.651 12.8558 643.272 11.1902 642.365 9.3079C641.754 8.04644 641.35 6.69628 641.182 5.3067C639.537 7.396 637.575 10.8354 638.255 14.7874C638.758 17.7143 640.926 20.2471 640.946 20.2668C641.33 20.73 641.626 21.0355 641.862 21.2819C644.71 24.1793 651.767 27.471 652.949 28.0031V18.01C652.821 17.9509 652.693 17.8917 652.555 17.8228C651.353 17.2413 650.397 16.7387 649.471 16.1967V16.2065Z" fill="white"/>
<path d="M655.177 28.9887L655.788 29.2646C659.079 30.7429 660.883 31.5609 662.489 32.6843C664.687 34.2217 666.303 35.8577 667.269 37.5429C667.328 37.6415 667.377 37.74 667.417 37.809C668.067 39.0409 668.501 40.3812 668.708 41.7905C670.304 39.6815 672.187 36.2223 671.418 32.2606C670.846 29.3139 668.994 27.2541 668.195 26.377C665.16 23.0066 660.804 21.2819 657.621 20.0303L657.512 19.9909C657.099 19.8234 656.271 19.4981 655.177 19.0349V28.9985V28.9887Z" fill="white"/>
<path d="M653.127 28.0918C653.629 28.3185 653.856 28.4171 654.083 28.5156C654.329 28.624 654.576 28.7324 655.177 28.9985V19.0349C654.516 18.7491 653.767 18.4141 652.949 18.0297V28.0229C653.048 28.0721 653.127 28.1017 653.127 28.1017V28.0918Z" fill="white"/>
</g>
<g clip-path="url(#clip3_210_110)">
<path d="M774 3.77C774 1.68789 775.688 0 777.77 0H777.94C780.022 0 781.71 1.68789 781.71 3.77C781.71 5.85211 780.022 7.54 777.94 7.54H777.77C775.688 7.54 774 5.85211 774 3.77ZM774 13.48H781.71V45.35H774V13.48Z" fill="white"/>
<path d="M795.03 35.92C795.78 38.78 798.02 40.41 801.66 40.41C805.3 40.41 806.8 38.95 806.8 36.7C806.8 34.45 805.4 33.34 800.32 32.1C790.37 29.66 788.6 26.59 788.6 22.15C788.6 17.71 791.91 12.73 801.05 12.73C810.19 12.73 813.53 17.83 813.85 22.19H806.49C806.15 20.72 805.1 18.27 800.7 18.27C797.26 18.27 796.19 19.85 796.19 21.5C796.19 23.35 797.29 24.26 802.69 25.53C813 27.94 814.64 31.45 814.64 36.14C814.64 41.52 810.49 46.08 801.37 46.08C792.25 46.08 788.16 41.58 787.42 35.91H795.02L795.03 35.92Z" fill="white"/>
<path d="M834.75 28.11H864.31V34.06H834.75V28.11ZM847.22 3.73001H852.53L842.44 45.35H836.94L847.22 3.73001ZM837.84 13.99H867.17L867.13 19.94H837.85V13.99H837.84ZM859.76 3.73001H865.08L855 45.35H849.54L859.76 3.73001Z" fill="white"/>
<path d="M880.93 45.34V11.97C879.08 13.04 874.61 13.99 872.53 14.12V8.38C876.46 7.57 880.87 5.16 883.29 2.47H888.97V45.34H880.93Z" fill="white"/>
</g>
<defs>
<clipPath id="clip0_210_110">
<rect width="272.17" height="45.0282" fill="white" transform="translate(0 1)"/>
</clipPath>
<clipPath id="clip1_210_110">
<rect width="114.97" height="46.09" fill="white" transform="translate(298)"/>
</clipPath>
<clipPath id="clip2_210_110">
<rect width="272.17" height="45.0282" fill="white" transform="translate(476 1)"/>
</clipPath>
<clipPath id="clip3_210_110">
<rect width="114.97" height="46.09" fill="white" transform="translate(774)"/>
</clipPath>
</defs>
</svg>
